<?xml version="1.0" encoding="utf-8"?>
<!-- Generator: Adobe Illustrator 16.0.0, SVG Export Plug-In . SVG Version: 6.00 Build 0)  -->
<!DOCTYPE svg PUBLIC "-//W3C//DTD SVG 1.1//EN" "http://www.w3.org/Graphics/SVG/1.1/DTD/svg11.dtd">
<svg version="1.1"
	 id="svg3070" sodipodi:docname="New document 4" inkscape:version="0.48.0 r9654" xmlns:svg="http://www.w3.org/2000/svg" xmlns:dc="http://purl.org/dc/elements/1.1/" xmlns:rdf="http://www.w3.org/1999/02/22-rdf-syntax-ns#" xmlns:cc="http://creativecommons.org/ns#" xmlns:sodipodi="http://sodipodi.sourceforge.net/DTD/sodipodi-0.dtd" xmlns:inkscape="http://www.inkscape.org/namespaces/inkscape"
	 xmlns="http://www.w3.org/2000/svg" xmlns:xlink="http://www.w3.org/1999/xlink" x="0px" y="0px" width="53.385px"
	 height="51.027px" viewBox="-59.5 60.5 53.385 51.027" enable-background="new -59.5 60.5 53.385 51.027" xml:space="preserve">
<sodipodi:namedview  inkscape:window-width="1280" inkscape:window-height="750" inkscape:window-y="-8" inkscape:window-maximized="1" inkscape:current-layer="layer1" fit-margin-right="0" fit-margin-bottom="0" inkscape:window-x="-8" inkscape:document-units="px" inkscape:pageopacity="0.0" inkscape:pageshadow="2" id="base" fit-margin-top="0" pagecolor="#ffffff" inkscape:cx="142.93233" showgrid="false" inkscape:cy="33.703355" borderopacity="1.0" inkscape:zoom="2.8" fit-margin-left="0" bordercolor="#666666">
	</sodipodi:namedview>
<g>
	<path id="path28" inkscape:connector-curvature="0" fill="#FFFFFF" d="M-47.31,111.529v-34.43h-11.443v34.43H-47.31z
		 M-53.032,72.398c3.99,0,6.476-2.645,6.476-5.947c-0.074-3.379-2.484-5.949-6.398-5.949c-3.916,0-6.475,2.569-6.475,5.949
		c0,3.304,2.481,5.947,6.324,5.947H-53.032L-53.032,72.398z"/>
	<path id="path30" inkscape:connector-curvature="0" fill="#FFFFFF" d="M-40.976,111.529h11.442V92.302
		c0-1.028,0.074-2.058,0.377-2.793c0.826-2.057,2.71-4.187,5.871-4.187c4.142,0,5.798,3.157,5.798,7.785v18.42h11.441v-19.74
		c0-10.575-5.645-15.496-13.174-15.496c-6.174,0-8.885,3.451-10.391,5.801h0.076v-4.992h-11.443
		C-40.827,80.329-40.976,111.529-40.976,111.529L-40.976,111.529z"/>
</g>
</svg>
