<?xml version="1.0" encoding="utf-8"?>
<!-- Generator: Adobe Illustrator 16.0.0, SVG Export Plug-In . SVG Version: 6.00 Build 0)  -->
<!DOCTYPE svg PUBLIC "-//W3C//DTD SVG 1.1//EN" "http://www.w3.org/Graphics/SVG/1.1/DTD/svg11.dtd">
<svg version="1.1" id="Ebene_1" xmlns="http://www.w3.org/2000/svg" xmlns:xlink="http://www.w3.org/1999/xlink" x="0px" y="0px"
	 width="250px" height="250px" viewBox="-5.495 114.505 250 250" enable-background="new -5.495 114.505 250 250"
	 xml:space="preserve">
<g>
	<path fill="#FFFFFF" d="M172.345,114.505H66.664c-39.853,0-72.159,32.307-72.159,72.159v105.683
		c0,39.852,32.306,72.158,72.159,72.158h105.681c39.853,0,72.16-32.307,72.16-72.158V186.664
		C244.505,146.813,212.198,114.505,172.345,114.505 M221.482,294.204c0,26.454-21.444,47.9-47.901,47.9H65.426
		c-26.454,0-47.899-21.446-47.899-47.9V186.049c0-26.455,21.446-47.9,47.899-47.9H173.58c26.457,0,47.901,21.446,47.901,47.9
		V294.204z"/>
	<path fill="#FFFFFF" d="M119.505,175.26c-35.825,0-64.868,29.042-64.868,64.867s29.043,64.866,64.868,64.866
		c35.824,0,64.867-29.041,64.867-64.866S155.328,175.26,119.505,175.26 M119.505,282.175c-23.224,0-42.049-18.826-42.049-42.049
		s18.825-42.05,42.049-42.05c23.223,0,42.049,18.827,42.049,42.05S142.727,282.175,119.505,282.175"/>
	<path fill="#FFFFFF" d="M186.534,157.681c-8.347,0-15.113,6.766-15.113,15.112c0,8.347,6.766,15.112,15.113,15.112
		c8.344,0,15.111-6.766,15.111-15.112C201.646,164.448,194.879,157.681,186.534,157.681"/>
</g>
</svg>
