<?xml version="1.0" encoding="utf-8"?>
<!-- Generator: Adobe Illustrator 16.0.0, SVG Export Plug-In . SVG Version: 6.00 Build 0)  -->
<!DOCTYPE svg PUBLIC "-//W3C//DTD SVG 1.1//EN" "http://www.w3.org/Graphics/SVG/1.1/DTD/svg11.dtd">
<svg version="1.1" id="Ebene_1" xmlns="http://www.w3.org/2000/svg" xmlns:xlink="http://www.w3.org/1999/xlink" x="0px" y="0px"
	 width="176px" height="124px" viewBox="-59.5 60.492 176 124" enable-background="new -59.5 60.492 176 124" xml:space="preserve">
<path fill="#FFFFFF" d="M112.822,79.855c-2.024-7.621-7.988-13.623-15.561-15.66C83.537,60.492,28.5,60.492,28.5,60.492
	s-55.037,0-68.762,3.702c-7.573,2.037-13.537,8.039-15.561,15.66C-59.5,93.669-59.5,122.492-59.5,122.492s0,28.821,3.677,42.637
	c2.024,7.622,7.988,13.624,15.561,15.662c13.725,3.701,68.762,3.701,68.762,3.701s55.037,0,68.762-3.701
	c7.572-2.038,13.536-8.04,15.561-15.662c3.678-13.815,3.678-42.637,3.678-42.637S116.5,93.669,112.822,79.855z M10.5,148.661V96.323
	l46,26.17L10.5,148.661z"/>
</svg>
